<svg width="1440" height="780" viewBox="0 0 1440 780" fill="none" xmlns="http://www.w3.org/2000/svg">
<path d="M0 0H1440V780H0V0Z" fill="#C4C4C4"/>
<path d="M0 0H1440V780H0V0Z" fill="url(#paint0_linear)"/>
<g opacity="0.4">
<path d="M708.417 342.074L796.95 17.7909C806.807 -18.3148 836.001 -45.8937 872.608 -53.6826L1012.34 -83.4135C1020.42 -85.1312 1028.67 -85.8428 1036.92 -85.532L1445.77 -70.1262C1499.49 -68.1018 1542 -23.9604 1542 29.8029V423.624C1542 464.1 1517.6 500.583 1480.19 516.043L1338.01 574.802C1318.82 582.737 1297.62 584.495 1277.38 579.833L782.446 465.861C727.091 453.114 693.457 396.873 708.417 342.074Z" fill="#A79CBF" fill-opacity="0.4"/>
<path d="M709.852 320.487L791.66 37.5534C801.207 4.5348 827.042 -21.2669 860.073 -30.7711L1109.09 -102.422C1119.62 -105.453 1130.59 -106.732 1141.54 -106.206L1446.3 -91.5716C1499.6 -89.0121 1541.5 -45.0505 1541.5 8.3133V403.124C1541.5 443.6 1517.1 480.083 1479.69 495.543L1337.51 554.302C1318.32 562.237 1297.12 563.995 1276.88 559.333L783.476 445.713C727.546 432.834 693.91 375.623 709.852 320.487Z" fill="#8174D1"/>
<path d="M709.852 320.487L791.66 37.5534C801.207 4.5348 827.042 -21.2669 860.073 -30.7711L1109.09 -102.422C1119.62 -105.453 1130.59 -106.732 1141.54 -106.206L1446.3 -91.5716C1499.6 -89.0121 1541.5 -45.0505 1541.5 8.3133V403.124C1541.5 443.6 1517.1 480.083 1479.69 495.543L1337.51 554.302C1318.32 562.237 1297.12 563.995 1276.88 559.333L783.476 445.713C727.546 432.834 693.91 375.623 709.852 320.487Z" fill="url(#paint1_linear)"/>
</g>
<defs>
<linearGradient id="paint0_linear" x1="1440" y1="390" x2="2.78529e-05" y2="354.5" gradientUnits="userSpaceOnUse">
<stop offset="0.0110328" stop-color="#9654E9"/>
<stop offset="0.941399" stop-color="#4776E6"/>
</linearGradient>
<linearGradient id="paint1_linear" x1="1050.25" y1="-97" x2="1050.25" y2="566.5" gradientUnits="userSpaceOnUse">
<stop stop-color="white"/>
<stop offset="1" stop-color="white" stop-opacity="0"/>
</linearGradient>
</defs>
</svg>
