<svg width="40" height="31" viewBox="0 0 40 31" fill="none" xmlns="http://www.w3.org/2000/svg">
<path d="M36.4839 0H3.5159C2.97474 0 2.46811 0.133044 2.00977 0.352336L19.9218 18.2643L23.9364 14.4061C23.9364 14.4061 23.9368 14.4057 23.9368 14.4055C23.9369 14.4054 23.9372 14.4052 23.9372 14.4052L37.9906 0.352648C37.5321 0.1332 37.0252 0 36.4839 0Z" fill="white"/>
<path d="M39.6483 2.00996L26.4233 15.2342L39.6478 28.4586C39.8671 28.0003 40.0001 27.4937 40.0001 26.9525V3.51555C40.0001 2.97471 39.8674 2.46816 39.6483 2.00996Z" fill="white"/>
<path d="M0.352336 2.00948C0.133044 2.46782 0 2.97445 0 3.51561V26.9526C0 27.4934 0.132888 28.0001 0.352023 28.4583L13.5769 15.2341L0.352336 2.00948Z" fill="white"/>
<path d="M24.7661 16.8914L20.7509 20.7501C20.522 20.979 20.2222 21.0935 19.9224 21.0935C19.6226 21.0935 19.3227 20.979 19.0939 20.7501L15.2349 16.8912L2.00977 30.1155C2.46819 30.335 2.97513 30.4682 3.51645 30.4682H36.4844C37.0256 30.4682 37.5322 30.3351 37.9906 30.1158L24.7661 16.8914Z" fill="white"/>
</svg>
