<svg width="40" height="45" viewBox="0 0 40 45" fill="none" xmlns="http://www.w3.org/2000/svg">
<path d="M20.0027 0C13.6189 0 8.40039 5.21849 8.40039 11.6023C8.40039 17.9862 13.6189 23.2047 20.0027 23.2047C26.3866 23.2047 31.6051 17.9862 31.6051 11.6023C31.6051 5.21849 26.3866 0 20.0027 0Z" fill="white"/>
<path d="M39.9145 32.4764C39.6105 31.7164 39.2052 31.0071 38.7492 30.3484C36.4186 26.9032 32.8215 24.6233 28.7682 24.0659C28.2616 24.0153 27.7043 24.1166 27.299 24.4206C25.171 25.9912 22.6378 26.8018 20.0031 26.8018C17.3685 26.8018 14.8353 25.9912 12.7073 24.4206C12.302 24.1166 11.7446 23.9646 11.238 24.0659C7.18481 24.6233 3.53695 26.9032 1.25703 30.3484C0.801051 31.0071 0.39569 31.7671 0.0917663 32.4764C-0.0601956 32.7804 -0.00957403 33.1351 0.142388 33.4391C0.547749 34.1484 1.05435 34.8577 1.51034 35.4657C2.21962 36.4284 2.97962 37.2896 3.84097 38.1002C4.55025 38.8095 5.36088 39.4682 6.1716 40.1269C10.1741 43.1162 14.9873 44.6867 19.9525 44.6867C24.9177 44.6867 29.7309 43.1161 33.7334 40.1269C34.5441 39.5189 35.3547 38.8095 36.0641 38.1002C36.8747 37.2896 37.6853 36.4283 38.3947 35.4657C38.9013 34.807 39.3574 34.1484 39.7626 33.4391C40.0158 33.1351 40.0665 32.7803 39.9145 32.4764Z" fill="white"/>
</svg>
